<svg width="232" height="232" viewBox="0 0 232 232" fill="none" xmlns="http://www.w3.org/2000/svg">
<path d="M17.114 138.965C9.01457 134.952 0.455864 127.692 0.415034 116.329C0.374204 104.967 8.89495 97.6455 16.9509 93.574C25.2952 89.3716 35.4086 87.3284 43.6235 87.2989L96.912 87.1074L133.964 12.3319C135.749 8.72524 138.503 5.68707 141.918 3.55817C145.332 1.42926 149.272 0.293828 153.296 0.279232L173.249 0.207534C174.297 0.20425 175.333 0.429132 176.285 0.866565C177.237 1.304 178.083 1.9435 178.763 2.74062C179.443 3.53775 179.941 4.4734 180.224 5.48257C180.506 6.49174 180.565 7.55023 180.397 8.58452L167.429 88.1389L199.976 93.4361L218.936 74.3392C219.942 73.3234 221.227 72.6292 222.628 72.3446C224.029 72.0599 225.483 72.1977 226.805 72.7403C228.128 73.283 229.26 74.2062 230.057 75.3928C230.854 76.5795 231.281 77.9761 231.284 79.4058L231.543 151.593C231.551 153.022 231.134 154.422 230.345 155.614C229.556 156.807 228.431 157.738 227.113 158.29C225.794 158.842 224.341 158.991 222.938 158.716C221.535 158.441 220.245 157.756 219.232 156.748L200.135 137.773L167.627 143.319L181.166 222.778C181.342 223.811 181.291 224.87 181.016 225.881C180.741 226.892 180.249 227.831 179.575 228.633C178.9 229.435 178.059 230.081 177.11 230.525C176.161 230.969 175.127 231.202 174.079 231.206L154.126 231.278C150.103 231.292 146.154 230.185 142.724 228.081C139.294 225.976 136.519 222.958 134.708 219.364L97.1195 144.857L43.831 145.049C35.6306 145.078 25.4738 143.093 17.114 138.965Z" fill="#B4A9FA" fill-opacity="0.39"/>
</svg>
