<svg width="100" height="100" viewBox="0 0 231 231" fill="none" xmlns="http://www.w3.org/2000/svg">
<path d="M92.8043 16.6176C96.8468 8.53256 104.138 0 115.5 0C126.862 0 134.153 8.547 138.196 16.6176C142.368 24.9769 144.375 35.0976 144.375 43.3125V96.6013L219.017 133.922C222.617 135.72 225.645 138.484 227.762 141.907C229.879 145.329 231 149.273 231 153.297V173.25C231 174.298 230.771 175.333 230.33 176.284C229.889 177.234 229.247 178.078 228.447 178.755C227.648 179.432 226.71 179.927 225.7 180.206C224.69 180.484 223.631 180.54 222.597 180.368L143.09 167.114L137.676 199.642L156.705 218.67C157.717 219.68 158.406 220.967 158.686 222.369C158.966 223.771 158.823 225.225 158.275 226.545C157.728 227.866 156.801 228.995 155.611 229.788C154.422 230.581 153.023 231.003 151.594 231H79.4062C77.9766 231.003 76.5785 230.581 75.389 229.788C74.1995 228.995 73.2722 227.866 72.7248 226.545C72.1774 225.225 72.0344 223.771 72.314 222.369C72.5936 220.967 73.2832 219.68 74.2954 218.67L93.3384 199.642L87.9099 167.114L8.40263 180.368C7.36894 180.54 6.31024 180.484 5.30006 180.206C4.28988 179.927 3.35245 179.432 2.55288 178.755C1.75332 178.078 1.11079 177.234 0.669942 176.284C0.22909 175.333 0.000482357 174.298 0 173.25L0 153.297C0.000135929 149.273 1.1214 145.329 3.23802 141.907C5.35464 138.484 8.3829 135.72 11.9831 133.922L86.625 96.6013V43.3125C86.625 35.112 88.6463 24.9624 92.8043 16.6176Z" fill="#EAEAEA"/>
</svg>
