<svg width="427" height="427" viewBox="0 0 427 427" fill="none" xmlns="http://www.w3.org/2000/svg">
<g clip-path="url(#clip0_54_2)">
<path d="M149.333 192V106.667C149.333 89.575 155.993 73.502 168.076 61.41C180.168 49.327 196.236 42.667 213.333 42.667C230.425 42.667 246.498 49.327 258.585 61.415C270.672 73.502 277.333 89.575 277.333 106.667V192H320V106.667C320 79.369 309.585 52.071 288.759 31.241C267.925 10.415 240.627 0 213.333 0C186.035 0 158.732 10.415 137.907 31.241C117.077 52.071 106.666 79.369 106.666 106.667V192H149.333Z" fill="#29FB16"/>
<path d="M288.759 395.426C309.585 374.596 320 347.298 320 320V234.667H277.333V320C277.333 337.097 270.673 353.165 258.581 365.257C246.498 377.34 230.426 384 213.333 384C196.232 384 180.168 377.34 168.076 365.252C155.993 353.165 149.333 337.096 149.333 320V234.667H106.666V320C106.666 347.298 117.077 374.596 137.907 395.426C158.733 416.256 186.035 426.667 213.333 426.667C240.627 426.667 267.925 416.256 288.759 395.426Z" fill="#29FB16"/>
<path d="M234.667 106.667H192V320H234.667V106.667Z" fill="#29FB16"/>
</g>
<defs>
<clipPath id="clip0_54_2">
<rect width="426.667" height="426.667" fill="white"/>
</clipPath>
</defs>
</svg>
